<?xml version="1.0" encoding="UTF-8"?><svg id="Layer_1" xmlns="http://www.w3.org/2000/svg" viewBox="0 0 357.5 357.5"><defs><style>.cls-1{fill:#e5ddcb;}.cls-2{fill:none;stroke:#e5ddcb;stroke-miterlimit:10;stroke-width:19px;}</style></defs><path class="cls-1" d="M178.79,271.64c-16.74,0-32.3-2.83-46.66-8.5-14.37-5.67-26.82-13.64-37.36-23.92-10.54-10.28-18.71-22.29-24.49-36.03-5.79-13.74-8.68-28.69-8.68-44.85s2.89-31.36,8.68-45c5.78-13.64,13.95-25.59,24.49-35.88,10.54-10.28,22.94-18.25,37.2-23.92,14.26-5.66,29.86-8.5,46.81-8.5s32.24,2.78,46.5,8.34c14.26,5.56,26.61,13.48,37.05,23.76,10.43,10.28,18.55,22.29,24.34,36.03,5.78,13.74,8.68,28.79,8.68,45.16s-2.9,31.42-8.68,45.16c-5.79,13.74-13.9,25.76-24.34,36.03-10.44,10.28-22.79,18.2-37.05,23.76-14.26,5.56-29.76,8.34-46.5,8.34Zm0-35.88c10.95,0,21.03-1.89,30.23-5.67,9.19-3.78,17.25-9.18,24.18-16.21,6.92-7.03,12.25-15.26,15.97-24.7,3.72-9.44,5.58-19.72,5.58-30.84s-1.86-21.66-5.58-31c-3.72-9.33-9.04-17.51-15.97-24.55-6.93-7.03-14.99-12.43-24.18-16.21-9.2-3.78-19.28-5.66-30.23-5.66s-21.13,1.89-30.54,5.66c-9.41,3.78-17.52,9.18-24.34,16.21-6.82,7.03-12.2,15.21-16.12,24.55-3.93,9.34-5.89,19.67-5.89,31s1.96,21.4,5.89,30.84c3.92,9.44,9.3,17.68,16.12,24.7,6.82,7.03,14.93,12.43,24.34,16.21,9.4,3.78,19.58,5.67,30.54,5.67Zm71,81.19c-7.86,0-15.3-.94-22.32-2.83-7.03-1.89-14.06-4.83-21.08-8.81-7.03-3.99-14.26-9.34-21.7-16.05-7.44-6.72-15.61-14.9-24.49-24.55l42.78-11.01c5.78,7.76,11.32,13.96,16.59,18.57s10.43,7.97,15.5,10.07c5.06,2.09,10.08,3.15,15.04,3.15,14.46,0,26.97-5.98,37.51-17.94l18.29,22.97c-14.26,17.62-32.97,26.43-56.11,26.43Z"/><rect class="cls-2" x="9.5" y="9.5" width="338.5" height="338.5" rx="40" ry="40"/></svg>